<svg width="42" height="44" viewBox="0 0 42 44" fill="none" xmlns="http://www.w3.org/2000/svg">
<path d="M23.14 43.84C19.82 43.84 16.74 43.32 13.9 42.28C11.1 41.2 8.66 39.68 6.58 37.72C4.54 35.76 2.94 33.46 1.78 30.82C0.62 28.14 0.0400001 25.2 0.0400001 22C0.0400001 18.8 0.62 15.88 1.78 13.24C2.94 10.56 4.54 8.24 6.58 6.28C8.66 4.32 11.1 2.82 13.9 1.78C16.74 0.699997 19.82 0.159997 23.14 0.159997C27.02 0.159997 30.48 0.839998 33.52 2.2C36.6 3.56 39.16 5.52 41.2 8.08L33.64 14.92C32.28 13.32 30.78 12.1 29.14 11.26C27.54 10.42 25.74 10 23.74 10C22.02 10 20.44 10.28 19 10.84C17.56 11.4 16.32 12.22 15.28 13.3C14.28 14.34 13.48 15.6 12.88 17.08C12.32 18.56 12.04 20.2 12.04 22C12.04 23.8 12.32 25.44 12.88 26.92C13.48 28.4 14.28 29.68 15.28 30.76C16.32 31.8 17.56 32.6 19 33.16C20.44 33.72 22.02 34 23.74 34C25.74 34 27.54 33.58 29.14 32.74C30.78 31.9 32.28 30.68 33.64 29.08L41.2 35.92C39.16 38.44 36.6 40.4 33.52 41.8C30.48 43.16 27.02 43.84 23.14 43.84Z" fill="white"/>
</svg>
